P1
10 10
0000000000
0100001010
0101110010
0011000010
0101001100
0000101100
0110101100
0101011000
0110100100
0000000000
