P1
10 11
0000000000
0000000000
0111111110
0000000000
0111111110
0000000000
0111111110
0000000000
0111111110
0000000000
0000000000
